# xmcd CD database file
#
# Track frame offsets:
#	150
#	10830
#	23810
#	35267
#	48564
#	55726
#	69861
#	105963
#	123093
#	136250
#	144367
#	152144
#	168261
#	178836
#
# Disc length: 2485 seconds
#
# Revision: 0
# Processed by: cddbd v1.4PL0 Copyright (c) Steve Scherf et al.
# Submitted via: CDex 1.50Beta7
#
DISCID=a909b30e
DTITLE=Billie Holiday - Ain't Nobody's Business
DYEAR=1900
DGENRE=Jazz
TTITLE0=Ain't Nobody's Business
TTITLE1=My Man
TTITLE2=Lover Man
TTITLE3=I Cover the Waterfront
TTITLE4=You're Driving Me Crazy
TTITLE5=He's Funny That Way
TTITLE6=Fine and Mellow
TTITLE7=Good Morning Heartache
TTITLE8=Billie's Blues
TTITLE9=Miss Brown to You
TTITLE10=Why Not Take All of Me
TTITLE11=Do Nothing Till You Hear from Me
TTITLE12=Lover Come Back to Me
TTITLE13=Them There Eyes
EXTD=
EXTT0=
EXTT1=
EXTT2=
EXTT3=
EXTT4=
EXTT5=
EXTT6=
EXTT7=
EXTT8=
EXTT9=
EXTT10=
EXTT11=
EXTT12=
EXTT13=
PLAYORDER=
